<svg width="43" height="42" viewBox="0 0 43 42" fill="none" xmlns="http://www.w3.org/2000/svg">
<path d="M27.3049 33.087H23.4177L22.2139 29.3928C21.929 28.5289 20.7068 28.5289 20.4311 29.3928L19.2273 33.087H15.3401C14.4304 33.087 14.0536 34.254 14.7888 34.787L17.9316 37.0752L16.7278 40.7694C16.4521 41.6332 17.4354 42.35 18.1705 41.817L21.3133 39.5288L24.4562 41.817C25.1913 42.35 26.1746 41.624 25.8989 40.7694L24.6951 37.0752L27.8379 34.787C28.5914 34.254 28.2055 33.087 27.3049 33.087ZM22.7193 37.0017L23.2431 38.6007L21.8831 37.6082C21.5615 37.3693 21.1112 37.3693 20.7803 37.6082L19.4203 38.6007L19.9441 37.0017C20.0727 36.6157 19.9349 36.193 19.6041 35.9541L18.2257 34.9616H19.9073C20.3117 34.9616 20.6701 34.7043 20.7987 34.3184L21.3225 32.7194L21.8463 34.3184C21.975 34.7043 22.3334 34.9616 22.7377 34.9616H24.4194L23.0593 35.9541C22.7285 36.193 22.5907 36.6157 22.7193 37.0017Z" fill="#FFED9B"/>
<path d="M18.2899 9.89253L24.7134 14.5608L22.2506 22.1054C21.975 22.9692 22.9582 23.686 23.6934 23.153L30.1169 18.4847L36.5404 23.153C37.2755 23.686 38.2588 22.9692 37.9831 22.1054L35.5295 14.5608L41.953 9.89253C42.6881 9.35954 42.3114 8.19247 41.4016 8.19247H33.4619L31.0083 0.647862C30.7326 -0.215954 29.5012 -0.215954 29.2255 0.647862L26.7719 8.20166H18.8321C17.9316 8.20166 17.5548 9.36873 18.2899 9.89253ZM27.4519 10.0763C27.8563 10.0763 28.2146 9.81901 28.3433 9.43305L30.1169 3.98366L31.8905 9.43305C32.0191 9.81901 32.3775 10.0763 32.7818 10.0763H38.5161L33.8754 13.4489C33.5446 13.6878 33.4067 14.1105 33.5354 14.4965L35.309 19.9459L30.6682 16.5733C30.3374 16.3344 29.8963 16.3344 29.5655 16.5733L24.9248 19.9459L26.6984 14.4965C26.827 14.1105 26.6892 13.6878 26.3584 13.4489L21.7176 10.0763H27.4519Z" fill="#FFED9B"/>
<path d="M10.5432 13.1178H7.55658L6.63762 10.2782C6.36194 9.41439 5.13054 9.41439 4.85486 10.2782L3.9359 13.1178H0.940115C0.0303517 13.1178 -0.346419 14.2848 0.388743 14.8178L2.80559 16.573L1.88664 19.4126C1.61095 20.2764 2.59423 20.9932 3.32939 20.4602L5.73705 18.705L8.1539 20.4602C8.87987 20.9932 9.88153 20.2764 9.59665 19.4126L8.6777 16.573L11.0945 14.8178C11.8205 14.2756 11.4437 13.1178 10.5432 13.1178ZM7.02358 15.4519C6.69276 15.6908 6.55492 16.1136 6.68357 16.4995L6.9225 17.2439L6.28842 16.7844C5.9576 16.5455 5.5165 16.5455 5.18568 16.7844L4.5516 17.2439L4.79053 16.4995C4.91918 16.1136 4.78134 15.6908 4.45052 15.4519L3.81644 14.9924H4.59755C5.00189 14.9924 5.36028 14.7351 5.48893 14.3492L5.72786 13.6048L5.96679 14.3492C6.09544 14.7351 6.45383 14.9924 6.85817 14.9924H7.63928L7.02358 15.4519Z" fill="#FFED9B"/>
<path d="M6.6743 25.9283C5.12127 25.9283 3.8623 27.1872 3.8623 28.7403C3.8623 30.2933 5.12127 31.5523 6.6743 31.5523C8.22733 31.5523 9.4863 30.2933 9.4863 28.7403C9.4863 27.1872 8.22733 25.9283 6.6743 25.9283ZM6.6743 29.6776C6.15969 29.6776 5.73697 29.2549 5.73697 28.7403C5.73697 28.2257 6.15969 27.8029 6.6743 27.8029C7.18891 27.8029 7.61163 28.2257 7.61163 28.7403C7.61163 29.2549 7.18891 29.6776 6.6743 29.6776Z" fill="#FFED9B"/>
<path d="M38.5528 27.8028C36.4851 27.8028 34.8035 29.4845 34.8035 31.5522C34.8035 33.6198 36.4851 35.3015 38.5528 35.3015C40.6204 35.3015 42.3021 33.6198 42.3021 31.5522C42.3021 29.4845 40.6204 27.8028 38.5528 27.8028ZM38.5528 33.4268C37.5144 33.4268 36.6781 32.5814 36.6781 31.5522C36.6781 30.5137 37.5236 29.6775 38.5528 29.6775C39.5912 29.6775 40.4275 30.5229 40.4275 31.5522C40.4275 32.5906 39.5912 33.4268 38.5528 33.4268Z" fill="#FFED9B"/>
<path d="M12.2983 2.48593C10.7453 2.48593 9.48633 3.7449 9.48633 5.29793C9.48633 6.85096 10.7453 8.10992 12.2983 8.10992C13.8514 8.10992 15.1103 6.85096 15.1103 5.29793C15.1103 3.75409 13.8514 2.48593 12.2983 2.48593ZM12.2983 6.23526C11.7837 6.23526 11.361 5.81254 11.361 5.29793C11.361 4.78331 11.7837 4.3606 12.2983 4.3606C12.8129 4.3606 13.2357 4.78331 13.2357 5.29793C13.2357 5.81254 12.8221 6.23526 12.2983 6.23526Z" fill="#FFED9B"/>
<path d="M31.8996 39.0599C31.385 39.1151 31.0082 39.5745 31.0633 40.0892C31.1185 40.6038 31.578 40.9805 32.0926 40.9254C32.6072 40.8703 32.984 40.4108 32.9288 39.8962C32.8737 39.3816 32.4142 39.0048 31.8996 39.0599Z" fill="#FFED9B"/>
<path d="M13.245 24.0539C13.7626 24.0539 14.1823 23.6342 14.1823 23.1165C14.1823 22.5989 13.7626 22.1792 13.245 22.1792C12.7273 22.1792 12.3076 22.5989 12.3076 23.1165C12.3076 23.6342 12.7273 24.0539 13.245 24.0539Z" fill="#FFED9B"/>
<path d="M18.7769 25.9375C18.2623 25.9926 17.8855 26.4521 17.9407 26.9667C17.9958 27.4813 18.4553 27.8581 18.9699 27.803C19.4845 27.7478 19.8613 27.2883 19.8061 26.7737C19.751 26.2591 19.2915 25.8823 18.7769 25.9375Z" fill="#FFED9B"/>
<path d="M4.79757 36.2711C4.81481 35.7537 4.40938 35.3203 3.89202 35.3031C3.37466 35.2859 2.94127 35.6913 2.92404 36.2086C2.9068 36.726 3.31223 37.1594 3.82959 37.1766C4.34696 37.1939 4.78034 36.7884 4.79757 36.2711Z" fill="#FFED9B"/>
<path d="M22.7101 6.23515C23.2247 6.18001 23.6015 5.72054 23.5464 5.20592C23.4912 4.69131 23.0318 4.31454 22.5171 4.36968C22.0025 4.42481 21.6258 4.88429 21.6809 5.3989C21.736 5.91352 22.1955 6.29029 22.7101 6.23515Z" fill="#FFED9B"/>
<path d="M40.3356 14.6804C39.821 14.7356 39.4442 15.195 39.4994 15.7096C39.5545 16.2243 40.014 16.601 40.5286 16.5459C41.0432 16.4908 41.42 16.0313 41.3649 15.5167C41.3189 15.0021 40.8502 14.6345 40.3356 14.6804Z" fill="#FFED9B"/>
<path d="M11.3702 38.5087L12.6843 39.832L14.0076 38.4995L12.6843 37.1762L11.3702 38.5087Z" fill="#FFED9B"/>
<path d="M28.2422 27.2608L29.5655 28.5841L30.8796 27.2516L29.5655 25.9283L28.2422 27.2608Z" fill="#FFED9B"/>
<path d="M19.6317 17.097L18.3084 15.7737L16.9943 17.1062L18.3084 18.4295L19.6317 17.097Z" fill="#FFED9B"/>
<path d="M5.737 5.68377L4.4229 4.36047L3.09961 5.69296L4.4229 7.01625L5.737 5.68377Z" fill="#FFED9B"/>
<path d="M37.6155 2.87163L36.3014 1.54834L34.9781 2.88082L36.3014 4.20411L37.6155 2.87163Z" fill="#FFED9B"/>
</svg>
